<svg xmlns="http://www.w3.org/2000/svg" xmlns:xlink="http://www.w3.org/1999/xlink" width="146" zoomAndPan="magnify" viewBox="0 0 109.5 30.000001" height="40" preserveAspectRatio="xMidYMid meet" version="1.0"><defs><g/><clipPath id="3f81b4b00e"><path d="M 4.425781 3.359375 L 26.925781 3.359375 L 26.925781 25.859375 L 4.425781 25.859375 Z M 4.425781 3.359375 " clip-rule="nonzero"/></clipPath></defs><g fill="#936f54" fill-opacity="1"><g transform="translate(34.099936, 19.069612)"><g><path d="M 2.5 -0.46875 C 2.46875 -0.269531 2.367188 -0.128906 2.203125 -0.046875 C 2.046875 0.0234375 1.804688 0.0625 1.484375 0.0625 C 1.242188 0.0625 1.039062 0.0078125 0.875 -0.09375 C 0.707031 -0.207031 0.632812 -0.382812 0.65625 -0.625 C 0.769531 -1.5 0.859375 -2.351562 0.921875 -3.1875 C 0.992188 -4.019531 1.039062 -4.84375 1.0625 -5.65625 C 1.09375 -6.46875 1.085938 -7.269531 1.046875 -8.0625 C 1.035156 -8.289062 1.09375 -8.453125 1.21875 -8.546875 C 1.34375 -8.648438 1.5625 -8.703125 1.875 -8.703125 C 2.113281 -8.703125 2.3125 -8.648438 2.46875 -8.546875 C 2.632812 -8.453125 2.785156 -8.285156 2.921875 -8.046875 C 2.984375 -7.941406 3.070312 -7.796875 3.1875 -7.609375 C 3.300781 -7.429688 3.429688 -7.222656 3.578125 -6.984375 C 3.722656 -6.753906 3.882812 -6.5 4.0625 -6.21875 C 4.238281 -5.9375 4.429688 -5.628906 4.640625 -5.296875 C 4.859375 -4.972656 5.082031 -4.628906 5.3125 -4.265625 C 5.550781 -3.910156 5.800781 -3.546875 6.0625 -3.171875 C 6.050781 -3.679688 6.046875 -4.132812 6.046875 -4.53125 C 6.054688 -4.925781 6.070312 -5.296875 6.09375 -5.640625 C 6.125 -5.984375 6.15625 -6.332031 6.1875 -6.6875 C 6.226562 -7.039062 6.273438 -7.429688 6.328125 -7.859375 C 6.347656 -8.109375 6.425781 -8.289062 6.5625 -8.40625 C 6.695312 -8.53125 6.953125 -8.59375 7.328125 -8.59375 C 7.671875 -8.59375 7.890625 -8.535156 7.984375 -8.421875 C 8.085938 -8.316406 8.128906 -8.15625 8.109375 -7.9375 C 8.046875 -7.363281 7.988281 -6.800781 7.9375 -6.25 C 7.894531 -5.695312 7.859375 -5.132812 7.828125 -4.5625 C 7.796875 -3.988281 7.765625 -3.363281 7.734375 -2.6875 C 7.710938 -2.019531 7.703125 -1.269531 7.703125 -0.4375 C 7.703125 -0.269531 7.640625 -0.132812 7.515625 -0.03125 C 7.398438 0.0625 7.1875 0.109375 6.875 0.109375 C 6.59375 0.109375 6.375 0.0546875 6.21875 -0.046875 C 6.0625 -0.148438 5.898438 -0.316406 5.734375 -0.546875 C 5.523438 -0.847656 5.332031 -1.132812 5.15625 -1.40625 C 4.976562 -1.675781 4.800781 -1.9375 4.625 -2.1875 C 4.457031 -2.445312 4.28125 -2.71875 4.09375 -3 C 3.90625 -3.28125 3.703125 -3.578125 3.484375 -3.890625 C 3.273438 -4.210938 3.039062 -4.570312 2.78125 -4.96875 C 2.789062 -4.5625 2.785156 -4.164062 2.765625 -3.78125 C 2.753906 -3.394531 2.738281 -3.019531 2.71875 -2.65625 C 2.695312 -2.289062 2.664062 -1.925781 2.625 -1.5625 C 2.582031 -1.195312 2.539062 -0.832031 2.5 -0.46875 Z M 2.5 -0.46875 "/></g></g></g><g fill="#936f54" fill-opacity="1"><g transform="translate(42.839224, 19.069612)"><g><path d="M 6.203125 -8.34375 C 6.304688 -8.289062 6.390625 -8.222656 6.453125 -8.140625 C 6.515625 -8.066406 6.546875 -7.984375 6.546875 -7.890625 C 6.546875 -7.828125 6.507812 -7.742188 6.4375 -7.640625 C 6.375 -7.535156 6.285156 -7.421875 6.171875 -7.296875 C 6.066406 -7.179688 5.953125 -7.082031 5.828125 -7 C 5.703125 -6.925781 5.585938 -6.890625 5.484375 -6.890625 C 5.347656 -6.898438 5.222656 -6.925781 5.109375 -6.96875 C 4.992188 -7.007812 4.835938 -7.03125 4.640625 -7.03125 C 4.273438 -7.03125 3.953125 -6.941406 3.671875 -6.765625 C 3.390625 -6.597656 3.15625 -6.367188 2.96875 -6.078125 C 2.78125 -5.785156 2.632812 -5.453125 2.53125 -5.078125 C 2.425781 -4.710938 2.375 -4.328125 2.375 -3.921875 C 2.375 -3.546875 2.414062 -3.203125 2.5 -2.890625 C 2.59375 -2.578125 2.726562 -2.304688 2.90625 -2.078125 C 3.082031 -1.859375 3.296875 -1.6875 3.546875 -1.5625 C 3.796875 -1.4375 4.082031 -1.375 4.40625 -1.375 C 4.8125 -1.375 5.175781 -1.484375 5.5 -1.703125 C 5.832031 -1.929688 6.09375 -2.257812 6.28125 -2.6875 C 6.476562 -3.113281 6.578125 -3.640625 6.578125 -4.265625 C 6.578125 -4.609375 6.550781 -4.90625 6.5 -5.15625 C 6.457031 -5.414062 6.390625 -5.632812 6.296875 -5.8125 C 6.210938 -5.988281 6.117188 -6.140625 6.015625 -6.265625 C 5.972656 -6.328125 5.921875 -6.398438 5.859375 -6.484375 C 5.796875 -6.566406 5.765625 -6.660156 5.765625 -6.765625 C 5.765625 -6.847656 5.804688 -6.957031 5.890625 -7.09375 C 5.972656 -7.226562 6.070312 -7.363281 6.1875 -7.5 C 6.3125 -7.644531 6.429688 -7.765625 6.546875 -7.859375 C 6.660156 -7.960938 6.75 -8.015625 6.8125 -8.015625 C 6.9375 -8.015625 7.046875 -7.976562 7.140625 -7.90625 C 7.242188 -7.84375 7.332031 -7.757812 7.40625 -7.65625 C 7.476562 -7.5625 7.546875 -7.476562 7.609375 -7.40625 C 7.921875 -6.957031 8.144531 -6.460938 8.28125 -5.921875 C 8.414062 -5.390625 8.484375 -4.835938 8.484375 -4.265625 C 8.484375 -3.660156 8.382812 -3.085938 8.1875 -2.546875 C 7.988281 -2.015625 7.703125 -1.539062 7.328125 -1.125 C 6.960938 -0.707031 6.53125 -0.378906 6.03125 -0.140625 C 5.53125 0.0976562 4.972656 0.21875 4.359375 0.21875 C 3.796875 0.21875 3.296875 0.132812 2.859375 -0.03125 C 2.421875 -0.195312 2.050781 -0.414062 1.75 -0.6875 C 1.445312 -0.96875 1.203125 -1.28125 1.015625 -1.625 C 0.828125 -1.976562 0.6875 -2.34375 0.59375 -2.71875 C 0.507812 -3.09375 0.46875 -3.445312 0.46875 -3.78125 C 0.46875 -4.375 0.5625 -4.957031 0.75 -5.53125 C 0.9375 -6.101562 1.21875 -6.625 1.59375 -7.09375 C 1.96875 -7.5625 2.421875 -7.9375 2.953125 -8.21875 C 3.492188 -8.5 4.117188 -8.640625 4.828125 -8.640625 C 5.023438 -8.640625 5.25 -8.617188 5.5 -8.578125 C 5.757812 -8.546875 5.992188 -8.46875 6.203125 -8.34375 Z M 6.203125 -8.34375 "/></g></g></g><g fill="#936f54" fill-opacity="1"><g transform="translate(51.777134, 19.069612)"><g><path d="M 0.984375 -6.71875 C 0.753906 -6.726562 0.582031 -6.796875 0.46875 -6.921875 C 0.351562 -7.046875 0.296875 -7.296875 0.296875 -7.671875 C 0.296875 -7.960938 0.351562 -8.171875 0.46875 -8.296875 C 0.582031 -8.421875 0.742188 -8.476562 0.953125 -8.46875 C 1.179688 -8.457031 1.453125 -8.445312 1.765625 -8.4375 C 2.085938 -8.4375 2.421875 -8.429688 2.765625 -8.421875 C 3.109375 -8.421875 3.414062 -8.421875 3.6875 -8.421875 C 4.238281 -8.421875 4.785156 -8.425781 5.328125 -8.4375 C 5.867188 -8.445312 6.390625 -8.46875 6.890625 -8.5 C 7.078125 -8.5 7.222656 -8.4375 7.328125 -8.3125 C 7.429688 -8.1875 7.484375 -7.984375 7.484375 -7.703125 C 7.484375 -7.328125 7.425781 -7.070312 7.3125 -6.9375 C 7.207031 -6.8125 7.039062 -6.742188 6.8125 -6.734375 C 6.351562 -6.722656 5.859375 -6.707031 5.328125 -6.6875 C 4.796875 -6.675781 4.257812 -6.671875 3.71875 -6.671875 C 3.238281 -6.671875 2.757812 -6.675781 2.28125 -6.6875 C 1.8125 -6.695312 1.378906 -6.707031 0.984375 -6.71875 Z M 2.8125 -7.6875 C 2.8125 -7.757812 2.847656 -7.820312 2.921875 -7.875 C 2.992188 -7.925781 3.082031 -7.96875 3.1875 -8 C 3.300781 -8.039062 3.410156 -8.070312 3.515625 -8.09375 C 3.617188 -8.113281 3.695312 -8.125 3.75 -8.125 C 3.8125 -8.125 3.890625 -8.113281 3.984375 -8.09375 C 4.085938 -8.070312 4.191406 -8.039062 4.296875 -8 C 4.398438 -7.96875 4.488281 -7.925781 4.5625 -7.875 C 4.632812 -7.820312 4.671875 -7.757812 4.671875 -7.6875 C 4.671875 -6.414062 4.648438 -5.164062 4.609375 -3.9375 C 4.566406 -2.71875 4.5 -1.523438 4.40625 -0.359375 C 4.394531 -0.210938 4.335938 -0.0976562 4.234375 -0.015625 C 4.128906 0.0664062 4.003906 0.125 3.859375 0.15625 C 3.722656 0.195312 3.59375 0.21875 3.46875 0.21875 C 3.320312 0.21875 3.175781 0.195312 3.03125 0.15625 C 2.894531 0.113281 2.773438 0.046875 2.671875 -0.046875 C 2.578125 -0.140625 2.539062 -0.269531 2.5625 -0.4375 C 2.644531 -1.519531 2.707031 -2.679688 2.75 -3.921875 C 2.789062 -5.160156 2.8125 -6.414062 2.8125 -7.6875 Z M 2.8125 -7.6875 "/></g></g></g><g fill="#936f54" fill-opacity="1"><g transform="translate(59.236425, 19.069612)"><g><path d="M 1.328125 0.171875 C 1.253906 0.171875 1.160156 0.160156 1.046875 0.140625 C 0.929688 0.117188 0.832031 0.0703125 0.75 0 C 0.675781 -0.0820312 0.644531 -0.21875 0.65625 -0.40625 C 0.71875 -1.195312 0.773438 -2.003906 0.828125 -2.828125 C 0.890625 -3.660156 0.941406 -4.492188 0.984375 -5.328125 C 1.035156 -6.160156 1.082031 -6.976562 1.125 -7.78125 C 1.132812 -8 1.179688 -8.160156 1.265625 -8.265625 C 1.359375 -8.367188 1.523438 -8.429688 1.765625 -8.453125 C 2.109375 -8.484375 2.503906 -8.503906 2.953125 -8.515625 C 3.410156 -8.523438 3.882812 -8.535156 4.375 -8.546875 C 4.875 -8.566406 5.359375 -8.578125 5.828125 -8.578125 C 6.054688 -8.578125 6.222656 -8.523438 6.328125 -8.421875 C 6.429688 -8.316406 6.484375 -8.15625 6.484375 -7.9375 C 6.484375 -7.5625 6.429688 -7.3125 6.328125 -7.1875 C 6.234375 -7.0625 6.082031 -7 5.875 -7 C 5.539062 -7 5.242188 -7 4.984375 -7 C 4.734375 -7 4.5 -6.988281 4.28125 -6.96875 C 4.0625 -6.957031 3.847656 -6.945312 3.640625 -6.9375 C 3.429688 -6.925781 3.191406 -6.910156 2.921875 -6.890625 C 2.910156 -6.640625 2.898438 -6.421875 2.890625 -6.234375 C 2.878906 -6.046875 2.867188 -5.863281 2.859375 -5.6875 C 2.847656 -5.507812 2.832031 -5.296875 2.8125 -5.046875 C 3.132812 -5.085938 3.441406 -5.117188 3.734375 -5.140625 C 4.035156 -5.160156 4.316406 -5.175781 4.578125 -5.1875 C 4.847656 -5.195312 5.097656 -5.191406 5.328125 -5.171875 C 5.453125 -5.171875 5.566406 -5.117188 5.671875 -5.015625 C 5.785156 -4.910156 5.84375 -4.734375 5.84375 -4.484375 C 5.84375 -4.140625 5.785156 -3.90625 5.671875 -3.78125 C 5.554688 -3.664062 5.4375 -3.609375 5.3125 -3.609375 C 5.132812 -3.617188 4.914062 -3.625 4.65625 -3.625 C 4.394531 -3.625 4.101562 -3.609375 3.78125 -3.578125 C 3.457031 -3.554688 3.101562 -3.519531 2.71875 -3.46875 C 2.695312 -3.09375 2.671875 -2.742188 2.640625 -2.421875 C 2.617188 -2.109375 2.59375 -1.78125 2.5625 -1.4375 C 2.820312 -1.457031 3.085938 -1.476562 3.359375 -1.5 C 3.628906 -1.519531 3.894531 -1.539062 4.15625 -1.5625 C 4.425781 -1.582031 4.691406 -1.597656 4.953125 -1.609375 C 5.210938 -1.617188 5.46875 -1.625 5.71875 -1.625 C 5.894531 -1.625 6.03125 -1.570312 6.125 -1.46875 C 6.21875 -1.363281 6.257812 -1.179688 6.25 -0.921875 C 6.238281 -0.597656 6.1875 -0.375 6.09375 -0.25 C 6 -0.125 5.878906 -0.0625 5.734375 -0.0625 C 5.585938 -0.0625 5.4375 -0.0625 5.28125 -0.0625 C 5.132812 -0.0625 4.988281 -0.0625 4.84375 -0.0625 C 4.5 -0.0507812 4.117188 -0.0351562 3.703125 -0.015625 C 3.296875 0.00390625 2.882812 0.03125 2.46875 0.0625 C 2.0625 0.09375 1.679688 0.128906 1.328125 0.171875 Z M 1.328125 0.171875 "/></g></g></g><g fill="#936f54" fill-opacity="1"><g transform="translate(66.110891, 19.069612)"><g><path d="M 0.78125 -0.53125 C 0.8125 -0.832031 0.832031 -1.191406 0.84375 -1.609375 C 0.863281 -2.023438 0.875 -2.460938 0.875 -2.921875 C 0.875 -3.378906 0.875 -3.8125 0.875 -4.21875 C 0.875 -4.507812 0.875 -4.757812 0.875 -4.96875 C 0.882812 -5.1875 0.894531 -5.390625 0.90625 -5.578125 C 0.914062 -5.773438 0.929688 -5.976562 0.953125 -6.1875 C 0.972656 -6.394531 1 -6.640625 1.03125 -6.921875 C 0.96875 -7.003906 0.914062 -7.101562 0.875 -7.21875 C 0.84375 -7.34375 0.828125 -7.492188 0.828125 -7.671875 C 0.828125 -7.878906 0.878906 -8.046875 0.984375 -8.171875 C 1.085938 -8.304688 1.21875 -8.367188 1.375 -8.359375 C 1.65625 -8.347656 1.988281 -8.335938 2.375 -8.328125 C 2.769531 -8.316406 3.175781 -8.304688 3.59375 -8.296875 C 4.007812 -8.296875 4.40625 -8.296875 4.78125 -8.296875 C 5.15625 -8.304688 5.46875 -8.3125 5.71875 -8.3125 C 5.84375 -8.320312 5.953125 -8.28125 6.046875 -8.1875 C 6.148438 -8.09375 6.203125 -7.910156 6.203125 -7.640625 C 6.203125 -7.390625 6.160156 -7.203125 6.078125 -7.078125 C 5.992188 -6.953125 5.890625 -6.867188 5.765625 -6.828125 C 5.640625 -6.785156 5.515625 -6.757812 5.390625 -6.75 C 5.210938 -6.738281 5.039062 -6.726562 4.875 -6.71875 C 4.71875 -6.71875 4.546875 -6.71875 4.359375 -6.71875 C 4.179688 -6.726562 3.972656 -6.738281 3.734375 -6.75 C 3.492188 -6.757812 3.207031 -6.769531 2.875 -6.78125 C 2.84375 -6.40625 2.8125 -6.0625 2.78125 -5.75 C 2.757812 -5.4375 2.75 -5.128906 2.75 -4.828125 C 2.976562 -4.804688 3.210938 -4.789062 3.453125 -4.78125 C 3.691406 -4.78125 3.925781 -4.78125 4.15625 -4.78125 C 4.394531 -4.78125 4.617188 -4.789062 4.828125 -4.8125 C 4.992188 -4.820312 5.128906 -4.769531 5.234375 -4.65625 C 5.335938 -4.550781 5.390625 -4.394531 5.390625 -4.1875 C 5.398438 -3.863281 5.347656 -3.644531 5.234375 -3.53125 C 5.117188 -3.414062 5.003906 -3.347656 4.890625 -3.328125 C 4.515625 -3.304688 4.160156 -3.296875 3.828125 -3.296875 C 3.492188 -3.296875 3.132812 -3.316406 2.75 -3.359375 C 2.75 -2.640625 2.742188 -2.054688 2.734375 -1.609375 C 2.722656 -1.160156 2.695312 -0.800781 2.65625 -0.53125 C 2.625 -0.320312 2.546875 -0.164062 2.421875 -0.0625 C 2.296875 0.0390625 2.066406 0.09375 1.734375 0.09375 C 1.453125 0.09375 1.238281 0.0625 1.09375 0 C 0.957031 -0.0507812 0.867188 -0.125 0.828125 -0.21875 C 0.785156 -0.3125 0.769531 -0.414062 0.78125 -0.53125 Z M 0.78125 -0.53125 "/></g></g></g><g fill="#936f54" fill-opacity="1"><g transform="translate(72.577081, 19.069612)"><g><path d="M 0.359375 -7.640625 C 0.285156 -7.785156 0.28125 -7.925781 0.34375 -8.0625 C 0.414062 -8.207031 0.535156 -8.328125 0.703125 -8.421875 C 0.867188 -8.523438 1.0625 -8.578125 1.28125 -8.578125 C 1.519531 -8.578125 1.695312 -8.535156 1.8125 -8.453125 C 1.9375 -8.378906 2.023438 -8.28125 2.078125 -8.15625 C 2.179688 -7.976562 2.289062 -7.773438 2.40625 -7.546875 C 2.519531 -7.328125 2.640625 -7.097656 2.765625 -6.859375 C 2.890625 -6.628906 3.003906 -6.410156 3.109375 -6.203125 C 3.222656 -6.003906 3.320312 -5.828125 3.40625 -5.671875 C 3.5 -5.523438 3.554688 -5.429688 3.578125 -5.390625 C 3.859375 -5.828125 4.101562 -6.207031 4.3125 -6.53125 C 4.53125 -6.863281 4.738281 -7.171875 4.9375 -7.453125 C 5.144531 -7.734375 5.359375 -8.019531 5.578125 -8.3125 C 5.648438 -8.40625 5.726562 -8.476562 5.8125 -8.53125 C 5.90625 -8.582031 6.03125 -8.609375 6.1875 -8.609375 C 6.445312 -8.609375 6.660156 -8.539062 6.828125 -8.40625 C 6.992188 -8.269531 7.09375 -8.109375 7.125 -7.921875 C 7.164062 -7.742188 7.132812 -7.582031 7.03125 -7.4375 C 6.726562 -7.050781 6.429688 -6.664062 6.140625 -6.28125 C 5.859375 -5.894531 5.570312 -5.5 5.28125 -5.09375 C 5 -4.6875 4.695312 -4.238281 4.375 -3.75 C 4.382812 -3.175781 4.351562 -2.609375 4.28125 -2.046875 C 4.21875 -1.492188 4.160156 -0.976562 4.109375 -0.5 C 4.085938 -0.289062 4 -0.128906 3.84375 -0.015625 C 3.695312 0.0859375 3.441406 0.140625 3.078125 0.140625 C 2.765625 0.148438 2.539062 0.0820312 2.40625 -0.0625 C 2.28125 -0.207031 2.226562 -0.375 2.25 -0.5625 C 2.300781 -1.050781 2.359375 -1.546875 2.421875 -2.046875 C 2.492188 -2.546875 2.523438 -3.082031 2.515625 -3.65625 C 2.160156 -4.394531 1.796875 -5.078125 1.421875 -5.703125 C 1.054688 -6.335938 0.703125 -6.984375 0.359375 -7.640625 Z M 0.359375 -7.640625 "/></g></g></g><path fill="#936f54" d="M 16.0625 18.757812 L 15.746094 19.703125 L 16.691406 19.386719 L 23.875 12.207031 L 23.242188 11.574219 Z M 16.0625 18.757812 " fill-opacity="1" fill-rule="nonzero"/><g clip-path="url(#3f81b4b00e)"><path fill="#936f54" d="M 24.503906 3.359375 L 6.65625 3.359375 C 5.429688 3.359375 4.425781 4.359375 4.425781 5.589844 L 4.425781 23.4375 C 4.425781 24.664062 5.429688 25.667969 6.65625 25.667969 L 24.503906 25.667969 C 25.734375 25.667969 26.734375 24.664062 26.734375 23.4375 L 26.734375 5.589844 C 26.734375 4.359375 25.734375 3.359375 24.503906 3.359375 Z M 8.441406 6.929688 L 22.71875 6.929688 C 22.964844 6.929688 23.164062 7.128906 23.164062 7.375 C 23.164062 7.621094 22.964844 7.820312 22.71875 7.820312 L 8.441406 7.820312 C 8.195312 7.820312 7.996094 7.621094 7.996094 7.375 C 7.996094 7.128906 8.195312 6.929688 8.441406 6.929688 Z M 8.441406 9.605469 L 20.933594 9.605469 C 21.179688 9.605469 21.382812 9.804688 21.382812 10.050781 C 21.382812 10.296875 21.179688 10.496094 20.933594 10.496094 L 8.441406 10.496094 C 8.195312 10.496094 7.996094 10.296875 7.996094 10.050781 C 7.996094 9.804688 8.195312 9.605469 8.441406 9.605469 Z M 8.441406 12.28125 L 18.257812 12.28125 C 18.503906 12.28125 18.703125 12.480469 18.703125 12.726562 C 18.703125 12.976562 18.503906 13.175781 18.257812 13.175781 L 8.441406 13.175781 C 8.195312 13.175781 7.996094 12.976562 7.996094 12.726562 C 7.996094 12.480469 8.195312 12.28125 8.441406 12.28125 Z M 8.441406 14.960938 L 15.582031 14.960938 C 15.828125 14.960938 16.027344 15.160156 16.027344 15.40625 C 16.027344 15.652344 15.828125 15.851562 15.582031 15.851562 L 8.441406 15.851562 C 8.195312 15.851562 7.996094 15.652344 7.996094 15.40625 C 7.996094 15.160156 8.195312 14.960938 8.441406 14.960938 Z M 12.902344 21.207031 L 8.441406 21.207031 C 8.195312 21.207031 7.996094 21.003906 7.996094 20.757812 C 7.996094 20.511719 8.195312 20.3125 8.441406 20.3125 L 12.902344 20.3125 C 13.152344 20.3125 13.351562 20.511719 13.351562 20.757812 C 13.351562 21.003906 13.152344 21.207031 12.902344 21.207031 Z M 13.796875 18.527344 L 8.441406 18.527344 C 8.195312 18.527344 7.996094 18.328125 7.996094 18.082031 C 7.996094 17.835938 8.195312 17.636719 8.441406 17.636719 L 13.796875 17.636719 C 14.042969 17.636719 14.242188 17.835938 14.242188 18.082031 C 14.242188 18.328125 14.042969 18.527344 13.796875 18.527344 Z M 24.820312 12.519531 L 17.246094 20.09375 C 17.199219 20.140625 17.140625 20.179688 17.074219 20.199219 L 15.179688 20.832031 C 15.132812 20.847656 15.085938 20.855469 15.039062 20.855469 C 14.921875 20.855469 14.808594 20.808594 14.722656 20.722656 C 14.605469 20.605469 14.5625 20.425781 14.617188 20.265625 L 15.246094 18.375 C 15.269531 18.308594 15.304688 18.25 15.355469 18.199219 L 22.925781 10.628906 C 23.09375 10.460938 23.390625 10.460938 23.558594 10.628906 L 24.820312 11.890625 C 24.902344 11.972656 24.949219 12.085938 24.949219 12.207031 C 24.949219 12.324219 24.902344 12.4375 24.820312 12.519531 Z M 24.820312 12.519531 " fill-opacity="1" fill-rule="nonzero"/></g></svg>