<svg xmlns="http://www.w3.org/2000/svg" xmlns:xlink="http://www.w3.org/1999/xlink" width="146" zoomAndPan="magnify" viewBox="0 0 109.5 30.000001" height="40" preserveAspectRatio="xMidYMid meet" version="1.0"><defs><g/><clipPath id="51d4c3e000"><path d="M 4.425781 3.355469 L 26.925781 3.355469 L 26.925781 25.855469 L 4.425781 25.855469 Z M 4.425781 3.355469 " clip-rule="nonzero"/></clipPath></defs><path fill="#d3d3d3" d="M 16.066406 18.757812 L 15.75 19.707031 L 16.699219 19.390625 L 23.882812 12.207031 L 23.25 11.574219 Z M 16.066406 18.757812 " fill-opacity="1" fill-rule="nonzero"/><g clip-path="url(#51d4c3e000)"><path fill="#d3d3d3" d="M 24.515625 3.355469 L 6.660156 3.355469 C 5.429688 3.355469 4.425781 4.355469 4.425781 5.585938 L 4.425781 23.441406 C 4.425781 24.671875 5.429688 25.671875 6.660156 25.671875 L 24.515625 25.671875 C 25.746094 25.671875 26.746094 24.671875 26.746094 23.441406 L 26.746094 5.585938 C 26.746094 4.355469 25.746094 3.355469 24.515625 3.355469 Z M 8.445312 6.925781 L 22.730469 6.925781 C 22.976562 6.925781 23.175781 7.125 23.175781 7.371094 C 23.175781 7.617188 22.976562 7.816406 22.730469 7.816406 L 8.445312 7.816406 C 8.199219 7.816406 8 7.617188 8 7.371094 C 8 7.125 8.199219 6.925781 8.445312 6.925781 Z M 8.445312 9.605469 L 20.941406 9.605469 C 21.191406 9.605469 21.390625 9.804688 21.390625 10.050781 C 21.390625 10.296875 21.191406 10.496094 20.941406 10.496094 L 8.445312 10.496094 C 8.199219 10.496094 8 10.296875 8 10.050781 C 8 9.804688 8.199219 9.605469 8.445312 9.605469 Z M 8.445312 12.28125 L 18.265625 12.28125 C 18.511719 12.28125 18.710938 12.480469 18.710938 12.726562 C 18.710938 12.976562 18.511719 13.175781 18.265625 13.175781 L 8.445312 13.175781 C 8.199219 13.175781 8 12.976562 8 12.726562 C 8 12.480469 8.199219 12.28125 8.445312 12.28125 Z M 8.445312 14.960938 L 15.585938 14.960938 C 15.832031 14.960938 16.03125 15.160156 16.03125 15.40625 C 16.03125 15.652344 15.832031 15.851562 15.585938 15.851562 L 8.445312 15.851562 C 8.199219 15.851562 8 15.652344 8 15.40625 C 8 15.160156 8.199219 14.960938 8.445312 14.960938 Z M 12.910156 21.210938 L 8.445312 21.210938 C 8.199219 21.210938 8 21.011719 8 20.761719 C 8 20.515625 8.199219 20.316406 8.445312 20.316406 L 12.910156 20.316406 C 13.15625 20.316406 13.355469 20.515625 13.355469 20.761719 C 13.355469 21.011719 13.15625 21.210938 12.910156 21.210938 Z M 13.800781 18.53125 L 8.445312 18.53125 C 8.199219 18.53125 8 18.332031 8 18.085938 C 8 17.835938 8.199219 17.636719 8.445312 17.636719 L 13.800781 17.636719 C 14.046875 17.636719 14.246094 17.835938 14.246094 18.085938 C 14.246094 18.332031 14.046875 18.53125 13.800781 18.53125 Z M 24.828125 12.519531 L 17.253906 20.097656 C 17.207031 20.144531 17.144531 20.183594 17.078125 20.203125 L 15.1875 20.835938 C 15.140625 20.851562 15.09375 20.859375 15.046875 20.859375 C 14.929688 20.859375 14.816406 20.8125 14.730469 20.726562 C 14.609375 20.609375 14.570312 20.429688 14.621094 20.269531 L 15.253906 18.378906 C 15.273438 18.3125 15.3125 18.25 15.359375 18.203125 L 22.9375 10.628906 C 23.105469 10.460938 23.398438 10.460938 23.566406 10.628906 L 24.828125 11.890625 C 24.914062 11.972656 24.960938 12.085938 24.960938 12.207031 C 24.960938 12.324219 24.914062 12.4375 24.828125 12.519531 Z M 24.828125 12.519531 " fill-opacity="1" fill-rule="nonzero"/></g><g fill="#d3d3d3" fill-opacity="1"><g transform="translate(34.096422, 18.668899)"><g><path d="M 2.484375 -0.46875 C 2.453125 -0.269531 2.351562 -0.128906 2.1875 -0.046875 C 2.03125 0.0234375 1.789062 0.0625 1.46875 0.0625 C 1.238281 0.0625 1.039062 0.0078125 0.875 -0.09375 C 0.707031 -0.207031 0.632812 -0.382812 0.65625 -0.625 C 0.769531 -1.488281 0.859375 -2.335938 0.921875 -3.171875 C 0.984375 -4.003906 1.023438 -4.820312 1.046875 -5.625 C 1.078125 -6.4375 1.078125 -7.238281 1.046875 -8.03125 C 1.035156 -8.257812 1.09375 -8.421875 1.21875 -8.515625 C 1.34375 -8.617188 1.5625 -8.671875 1.875 -8.671875 C 2.113281 -8.671875 2.3125 -8.617188 2.46875 -8.515625 C 2.625 -8.421875 2.769531 -8.253906 2.90625 -8.015625 C 2.976562 -7.910156 3.066406 -7.765625 3.171875 -7.578125 C 3.285156 -7.398438 3.414062 -7.191406 3.5625 -6.953125 C 3.707031 -6.722656 3.867188 -6.46875 4.046875 -6.1875 C 4.222656 -5.90625 4.414062 -5.601562 4.625 -5.28125 C 4.832031 -4.957031 5.050781 -4.613281 5.28125 -4.25 C 5.519531 -3.894531 5.769531 -3.53125 6.03125 -3.15625 C 6.019531 -3.664062 6.019531 -4.113281 6.03125 -4.5 C 6.039062 -4.894531 6.054688 -5.265625 6.078125 -5.609375 C 6.109375 -5.953125 6.140625 -6.300781 6.171875 -6.65625 C 6.210938 -7.007812 6.253906 -7.398438 6.296875 -7.828125 C 6.328125 -8.078125 6.40625 -8.257812 6.53125 -8.375 C 6.664062 -8.5 6.921875 -8.5625 7.296875 -8.5625 C 7.640625 -8.5625 7.859375 -8.503906 7.953125 -8.390625 C 8.054688 -8.285156 8.097656 -8.117188 8.078125 -7.890625 C 8.015625 -7.328125 7.957031 -6.769531 7.90625 -6.21875 C 7.863281 -5.675781 7.828125 -5.117188 7.796875 -4.546875 C 7.765625 -3.972656 7.734375 -3.351562 7.703125 -2.6875 C 7.679688 -2.019531 7.671875 -1.269531 7.671875 -0.4375 C 7.671875 -0.269531 7.609375 -0.132812 7.484375 -0.03125 C 7.367188 0.0625 7.15625 0.109375 6.84375 0.109375 C 6.5625 0.109375 6.34375 0.0546875 6.1875 -0.046875 C 6.03125 -0.148438 5.875 -0.316406 5.71875 -0.546875 C 5.507812 -0.847656 5.3125 -1.128906 5.125 -1.390625 C 4.945312 -1.660156 4.769531 -1.925781 4.59375 -2.1875 C 4.425781 -2.445312 4.25 -2.710938 4.0625 -2.984375 C 3.882812 -3.265625 3.6875 -3.5625 3.46875 -3.875 C 3.257812 -4.1875 3.023438 -4.539062 2.765625 -4.9375 C 2.773438 -4.539062 2.773438 -4.148438 2.765625 -3.765625 C 2.753906 -3.390625 2.738281 -3.015625 2.71875 -2.640625 C 2.695312 -2.273438 2.664062 -1.910156 2.625 -1.546875 C 2.582031 -1.191406 2.535156 -0.832031 2.484375 -0.46875 Z M 2.484375 -0.46875 "/></g></g></g><g fill="#d3d3d3" fill-opacity="1"><g transform="translate(42.798331, 18.668899)"><g><path d="M 6.171875 -8.3125 C 6.285156 -8.257812 6.375 -8.191406 6.4375 -8.109375 C 6.5 -8.035156 6.53125 -7.953125 6.53125 -7.859375 C 6.53125 -7.796875 6.492188 -7.710938 6.421875 -7.609375 C 6.347656 -7.503906 6.257812 -7.390625 6.15625 -7.265625 C 6.050781 -7.148438 5.9375 -7.050781 5.8125 -6.96875 C 5.6875 -6.894531 5.566406 -6.859375 5.453125 -6.859375 C 5.328125 -6.867188 5.207031 -6.894531 5.09375 -6.9375 C 4.976562 -6.976562 4.816406 -7 4.609375 -7 C 4.253906 -7 3.9375 -6.910156 3.65625 -6.734375 C 3.375 -6.566406 3.140625 -6.335938 2.953125 -6.046875 C 2.765625 -5.765625 2.617188 -5.4375 2.515625 -5.0625 C 2.410156 -4.695312 2.359375 -4.3125 2.359375 -3.90625 C 2.359375 -3.53125 2.40625 -3.1875 2.5 -2.875 C 2.59375 -2.570312 2.722656 -2.304688 2.890625 -2.078125 C 3.066406 -1.847656 3.28125 -1.671875 3.53125 -1.546875 C 3.78125 -1.421875 4.0625 -1.359375 4.375 -1.359375 C 4.789062 -1.359375 5.160156 -1.46875 5.484375 -1.6875 C 5.804688 -1.914062 6.066406 -2.242188 6.265625 -2.671875 C 6.460938 -3.097656 6.5625 -3.617188 6.5625 -4.234375 C 6.5625 -4.585938 6.535156 -4.890625 6.484375 -5.140625 C 6.429688 -5.398438 6.363281 -5.613281 6.28125 -5.78125 C 6.195312 -5.957031 6.101562 -6.109375 6 -6.234375 C 5.945312 -6.304688 5.890625 -6.378906 5.828125 -6.453125 C 5.773438 -6.535156 5.75 -6.632812 5.75 -6.75 C 5.75 -6.820312 5.785156 -6.925781 5.859375 -7.0625 C 5.941406 -7.195312 6.039062 -7.332031 6.15625 -7.46875 C 6.28125 -7.613281 6.398438 -7.734375 6.515625 -7.828125 C 6.628906 -7.921875 6.71875 -7.96875 6.78125 -7.96875 C 6.90625 -7.96875 7.015625 -7.9375 7.109375 -7.875 C 7.210938 -7.8125 7.300781 -7.726562 7.375 -7.625 C 7.445312 -7.53125 7.515625 -7.445312 7.578125 -7.375 C 7.890625 -6.9375 8.113281 -6.445312 8.25 -5.90625 C 8.382812 -5.363281 8.453125 -4.8125 8.453125 -4.25 C 8.453125 -3.644531 8.351562 -3.070312 8.15625 -2.53125 C 7.957031 -2 7.671875 -1.523438 7.296875 -1.109375 C 6.929688 -0.703125 6.5 -0.378906 6 -0.140625 C 5.507812 0.0976562 4.957031 0.21875 4.34375 0.21875 C 3.78125 0.21875 3.28125 0.132812 2.84375 -0.03125 C 2.414062 -0.195312 2.050781 -0.414062 1.75 -0.6875 C 1.445312 -0.957031 1.203125 -1.269531 1.015625 -1.625 C 0.828125 -1.976562 0.6875 -2.335938 0.59375 -2.703125 C 0.507812 -3.078125 0.46875 -3.429688 0.46875 -3.765625 C 0.46875 -4.347656 0.5625 -4.925781 0.75 -5.5 C 0.9375 -6.070312 1.21875 -6.59375 1.59375 -7.0625 C 1.96875 -7.53125 2.421875 -7.898438 2.953125 -8.171875 C 3.484375 -8.453125 4.097656 -8.59375 4.796875 -8.59375 C 4.992188 -8.59375 5.21875 -8.570312 5.46875 -8.53125 C 5.726562 -8.5 5.960938 -8.425781 6.171875 -8.3125 Z M 6.171875 -8.3125 "/></g></g></g><g fill="#d3d3d3" fill-opacity="1"><g transform="translate(51.698012, 18.668899)"><g><path d="M 0.984375 -6.6875 C 0.753906 -6.707031 0.582031 -6.773438 0.46875 -6.890625 C 0.351562 -7.015625 0.296875 -7.265625 0.296875 -7.640625 C 0.296875 -7.929688 0.351562 -8.140625 0.46875 -8.265625 C 0.582031 -8.390625 0.742188 -8.445312 0.953125 -8.4375 C 1.171875 -8.425781 1.4375 -8.414062 1.75 -8.40625 C 2.070312 -8.40625 2.40625 -8.398438 2.75 -8.390625 C 3.09375 -8.390625 3.398438 -8.390625 3.671875 -8.390625 C 4.222656 -8.390625 4.765625 -8.394531 5.296875 -8.40625 C 5.835938 -8.414062 6.359375 -8.429688 6.859375 -8.453125 C 7.046875 -8.460938 7.191406 -8.40625 7.296875 -8.28125 C 7.398438 -8.15625 7.453125 -7.953125 7.453125 -7.671875 C 7.453125 -7.296875 7.394531 -7.039062 7.28125 -6.90625 C 7.175781 -6.78125 7.007812 -6.71875 6.78125 -6.71875 C 6.320312 -6.695312 5.828125 -6.675781 5.296875 -6.65625 C 4.773438 -6.644531 4.242188 -6.640625 3.703125 -6.640625 C 3.222656 -6.640625 2.75 -6.644531 2.28125 -6.65625 C 1.8125 -6.664062 1.378906 -6.675781 0.984375 -6.6875 Z M 2.796875 -7.65625 C 2.796875 -7.726562 2.832031 -7.789062 2.90625 -7.84375 C 2.976562 -7.894531 3.066406 -7.9375 3.171875 -7.96875 C 3.285156 -8.007812 3.394531 -8.035156 3.5 -8.046875 C 3.601562 -8.066406 3.679688 -8.078125 3.734375 -8.078125 C 3.796875 -8.078125 3.875 -8.066406 3.96875 -8.046875 C 4.070312 -8.035156 4.175781 -8.007812 4.28125 -7.96875 C 4.382812 -7.9375 4.472656 -7.894531 4.546875 -7.84375 C 4.617188 -7.789062 4.65625 -7.726562 4.65625 -7.65625 C 4.65625 -6.382812 4.632812 -5.140625 4.59375 -3.921875 C 4.550781 -2.703125 4.476562 -1.515625 4.375 -0.359375 C 4.375 -0.210938 4.320312 -0.0976562 4.21875 -0.015625 C 4.113281 0.0664062 3.988281 0.125 3.84375 0.15625 C 3.707031 0.195312 3.578125 0.21875 3.453125 0.21875 C 3.304688 0.21875 3.160156 0.195312 3.015625 0.15625 C 2.878906 0.113281 2.765625 0.046875 2.671875 -0.046875 C 2.578125 -0.140625 2.535156 -0.265625 2.546875 -0.421875 C 2.628906 -1.503906 2.691406 -2.660156 2.734375 -3.890625 C 2.773438 -5.128906 2.796875 -6.382812 2.796875 -7.65625 Z M 2.796875 -7.65625 "/></g></g></g><g fill="#d3d3d3" fill-opacity="1"><g transform="translate(59.125401, 18.668899)"><g><path d="M 1.328125 0.171875 C 1.242188 0.171875 1.144531 0.160156 1.03125 0.140625 C 0.925781 0.117188 0.832031 0.0703125 0.75 0 C 0.675781 -0.0820312 0.644531 -0.21875 0.65625 -0.40625 C 0.71875 -1.1875 0.773438 -1.988281 0.828125 -2.8125 C 0.890625 -3.644531 0.941406 -4.476562 0.984375 -5.3125 C 1.035156 -6.144531 1.082031 -6.957031 1.125 -7.75 C 1.132812 -7.96875 1.179688 -8.128906 1.265625 -8.234375 C 1.359375 -8.335938 1.519531 -8.398438 1.75 -8.421875 C 2.101562 -8.441406 2.503906 -8.457031 2.953125 -8.46875 C 3.398438 -8.488281 3.867188 -8.503906 4.359375 -8.515625 C 4.847656 -8.523438 5.332031 -8.53125 5.8125 -8.53125 C 6.039062 -8.53125 6.203125 -8.476562 6.296875 -8.375 C 6.398438 -8.28125 6.453125 -8.117188 6.453125 -7.890625 C 6.453125 -7.523438 6.398438 -7.28125 6.296875 -7.15625 C 6.203125 -7.03125 6.054688 -6.96875 5.859375 -6.96875 C 5.515625 -6.96875 5.21875 -6.96875 4.96875 -6.96875 C 4.71875 -6.96875 4.484375 -6.960938 4.265625 -6.953125 C 4.046875 -6.941406 3.832031 -6.925781 3.625 -6.90625 C 3.414062 -6.894531 3.175781 -6.878906 2.90625 -6.859375 C 2.894531 -6.609375 2.882812 -6.390625 2.875 -6.203125 C 2.863281 -6.023438 2.851562 -5.84375 2.84375 -5.65625 C 2.832031 -5.476562 2.816406 -5.265625 2.796875 -5.015625 C 3.117188 -5.054688 3.425781 -5.085938 3.71875 -5.109375 C 4.007812 -5.140625 4.289062 -5.15625 4.5625 -5.15625 C 4.832031 -5.164062 5.082031 -5.164062 5.3125 -5.15625 C 5.4375 -5.15625 5.550781 -5.101562 5.65625 -5 C 5.769531 -4.894531 5.828125 -4.710938 5.828125 -4.453125 C 5.828125 -4.117188 5.765625 -3.890625 5.640625 -3.765625 C 5.523438 -3.648438 5.410156 -3.59375 5.296875 -3.59375 C 5.109375 -3.601562 4.882812 -3.609375 4.625 -3.609375 C 4.363281 -3.609375 4.070312 -3.59375 3.75 -3.5625 C 3.4375 -3.539062 3.09375 -3.503906 2.71875 -3.453125 C 2.6875 -3.085938 2.660156 -2.742188 2.640625 -2.421875 C 2.617188 -2.097656 2.59375 -1.769531 2.5625 -1.4375 C 2.8125 -1.445312 3.070312 -1.460938 3.34375 -1.484375 C 3.613281 -1.515625 3.878906 -1.535156 4.140625 -1.546875 C 4.410156 -1.566406 4.675781 -1.582031 4.9375 -1.59375 C 5.195312 -1.613281 5.445312 -1.625 5.6875 -1.625 C 5.863281 -1.625 6 -1.570312 6.09375 -1.46875 C 6.1875 -1.363281 6.226562 -1.179688 6.21875 -0.921875 C 6.207031 -0.597656 6.15625 -0.375 6.0625 -0.25 C 5.976562 -0.125 5.863281 -0.0625 5.71875 -0.0625 C 5.570312 -0.0625 5.421875 -0.0625 5.265625 -0.0625 C 5.117188 -0.0625 4.972656 -0.0625 4.828125 -0.0625 C 4.484375 -0.0507812 4.101562 -0.0351562 3.6875 -0.015625 C 3.28125 0.00390625 2.867188 0.03125 2.453125 0.0625 C 2.046875 0.09375 1.671875 0.128906 1.328125 0.171875 Z M 1.328125 0.171875 "/></g></g></g><g fill="#d3d3d3" fill-opacity="1"><g transform="translate(65.970463, 18.668899)"><g><path d="M 0.78125 -0.53125 C 0.8125 -0.832031 0.832031 -1.191406 0.84375 -1.609375 C 0.863281 -2.023438 0.875 -2.457031 0.875 -2.90625 C 0.875 -3.363281 0.875 -3.796875 0.875 -4.203125 C 0.875 -4.492188 0.875 -4.742188 0.875 -4.953125 C 0.882812 -5.160156 0.890625 -5.359375 0.890625 -5.546875 C 0.898438 -5.742188 0.914062 -5.945312 0.9375 -6.15625 C 0.96875 -6.363281 0.992188 -6.609375 1.015625 -6.890625 C 0.960938 -6.972656 0.914062 -7.070312 0.875 -7.1875 C 0.84375 -7.3125 0.828125 -7.460938 0.828125 -7.640625 C 0.828125 -7.847656 0.878906 -8.015625 0.984375 -8.140625 C 1.085938 -8.273438 1.210938 -8.335938 1.359375 -8.328125 C 1.648438 -8.316406 1.988281 -8.304688 2.375 -8.296875 C 2.757812 -8.285156 3.160156 -8.273438 3.578125 -8.265625 C 3.992188 -8.265625 4.382812 -8.265625 4.75 -8.265625 C 5.125 -8.265625 5.4375 -8.269531 5.6875 -8.28125 C 5.8125 -8.289062 5.921875 -8.242188 6.015625 -8.140625 C 6.117188 -8.046875 6.171875 -7.863281 6.171875 -7.59375 C 6.171875 -7.351562 6.128906 -7.171875 6.046875 -7.046875 C 5.972656 -6.921875 5.875 -6.835938 5.75 -6.796875 C 5.625 -6.753906 5.5 -6.726562 5.375 -6.71875 C 5.1875 -6.71875 5.015625 -6.710938 4.859375 -6.703125 C 4.703125 -6.691406 4.53125 -6.6875 4.34375 -6.6875 C 4.164062 -6.695312 3.957031 -6.707031 3.71875 -6.71875 C 3.476562 -6.726562 3.191406 -6.738281 2.859375 -6.75 C 2.828125 -6.375 2.796875 -6.03125 2.765625 -5.71875 C 2.742188 -5.414062 2.734375 -5.113281 2.734375 -4.8125 C 2.960938 -4.789062 3.195312 -4.773438 3.4375 -4.765625 C 3.675781 -4.753906 3.910156 -4.75 4.140625 -4.75 C 4.378906 -4.757812 4.601562 -4.773438 4.8125 -4.796875 C 4.96875 -4.804688 5.097656 -4.753906 5.203125 -4.640625 C 5.316406 -4.535156 5.375 -4.378906 5.375 -4.171875 C 5.375 -3.847656 5.316406 -3.628906 5.203125 -3.515625 C 5.097656 -3.398438 4.984375 -3.332031 4.859375 -3.3125 C 4.492188 -3.289062 4.144531 -3.28125 3.8125 -3.28125 C 3.476562 -3.28125 3.117188 -3.300781 2.734375 -3.34375 C 2.734375 -2.632812 2.726562 -2.054688 2.71875 -1.609375 C 2.71875 -1.160156 2.691406 -0.800781 2.640625 -0.53125 C 2.617188 -0.320312 2.546875 -0.164062 2.421875 -0.0625 C 2.296875 0.0390625 2.0625 0.09375 1.71875 0.09375 C 1.445312 0.09375 1.238281 0.0625 1.09375 0 C 0.957031 -0.0507812 0.867188 -0.125 0.828125 -0.21875 C 0.785156 -0.3125 0.769531 -0.414062 0.78125 -0.53125 Z M 0.78125 -0.53125 "/></g></g></g><g fill="#d3d3d3" fill-opacity="1"><g transform="translate(72.409, 18.668899)"><g><path d="M 0.34375 -7.609375 C 0.269531 -7.753906 0.269531 -7.894531 0.34375 -8.03125 C 0.414062 -8.175781 0.53125 -8.296875 0.6875 -8.390625 C 0.851562 -8.492188 1.050781 -8.546875 1.28125 -8.546875 C 1.519531 -8.546875 1.695312 -8.503906 1.8125 -8.421875 C 1.925781 -8.347656 2.015625 -8.25 2.078125 -8.125 C 2.171875 -7.945312 2.273438 -7.742188 2.390625 -7.515625 C 2.515625 -7.296875 2.632812 -7.066406 2.75 -6.828125 C 2.875 -6.597656 2.988281 -6.378906 3.09375 -6.171875 C 3.207031 -5.972656 3.304688 -5.800781 3.390625 -5.65625 C 3.484375 -5.507812 3.539062 -5.414062 3.5625 -5.375 C 3.832031 -5.800781 4.078125 -6.175781 4.296875 -6.5 C 4.515625 -6.832031 4.722656 -7.140625 4.921875 -7.421875 C 5.128906 -7.703125 5.34375 -7.988281 5.5625 -8.28125 C 5.632812 -8.375 5.710938 -8.441406 5.796875 -8.484375 C 5.890625 -8.535156 6.007812 -8.5625 6.15625 -8.5625 C 6.414062 -8.5625 6.628906 -8.492188 6.796875 -8.359375 C 6.960938 -8.234375 7.0625 -8.078125 7.09375 -7.890625 C 7.132812 -7.710938 7.101562 -7.550781 7 -7.40625 C 6.695312 -7.019531 6.398438 -6.632812 6.109375 -6.25 C 5.828125 -5.863281 5.539062 -5.46875 5.25 -5.0625 C 4.96875 -4.65625 4.671875 -4.210938 4.359375 -3.734375 C 4.367188 -3.160156 4.335938 -2.597656 4.265625 -2.046875 C 4.203125 -1.492188 4.144531 -0.976562 4.09375 -0.5 C 4.070312 -0.289062 3.984375 -0.128906 3.828125 -0.015625 C 3.679688 0.0859375 3.425781 0.140625 3.0625 0.140625 C 2.757812 0.148438 2.539062 0.0820312 2.40625 -0.0625 C 2.269531 -0.207031 2.210938 -0.375 2.234375 -0.5625 C 2.285156 -1.050781 2.34375 -1.546875 2.40625 -2.046875 C 2.476562 -2.546875 2.507812 -3.078125 2.5 -3.640625 C 2.15625 -4.378906 1.796875 -5.0625 1.421875 -5.6875 C 1.054688 -6.3125 0.695312 -6.953125 0.34375 -7.609375 Z M 0.34375 -7.609375 "/></g></g></g></svg>